<svg width="32" height="33" viewBox="0 0 32 33" fill="none" xmlns="http://www.w3.org/2000/svg">
<path d="M12.5569 27.8644L28.5734 20.7006C29.2078 20.4169 29.7063 19.8968 29.963 19.251C30.2196 18.6053 30.214 17.8848 29.9474 17.2431L28.2491 13.1553" stroke="#6366F1" stroke-width="3" stroke-linecap="round"/>
<path d="M14.2421 26.471L23.9934 11.8847C24.3796 11.3071 24.5251 10.6014 24.3989 9.91811C24.2727 9.23477 23.8847 8.62769 23.3176 8.22613L19.705 5.66818" stroke="#6366F1" stroke-width="3" stroke-linecap="round"/>
<g filter="url(#filter0_b_614_1856)">
<path d="M2.6665 6.49992C2.6665 5.79267 2.94746 5.1144 3.44755 4.6143C3.94765 4.1142 4.62593 3.83325 5.33317 3.83325H11.9998C12.7071 3.83325 13.3854 4.1142 13.8855 4.6143C14.3856 5.1144 14.6665 5.79267 14.6665 6.49992V23.1666C14.6665 23.9545 14.5113 24.7347 14.2098 25.4627C13.9083 26.1906 13.4663 26.8521 12.9091 27.4092C12.352 27.9664 11.6906 28.4083 10.9626 28.7099C10.2347 29.0114 9.45444 29.1666 8.6665 29.1666C7.87857 29.1666 7.09836 29.0114 6.3704 28.7099C5.64245 28.4083 4.98101 27.9664 4.42386 27.4092C3.86671 26.8521 3.42476 26.1906 3.12323 25.4627C2.8217 24.7347 2.6665 23.9545 2.6665 23.1666V6.49992Z" fill="#A5B4FC"/>
<path d="M2.6665 6.49992C2.6665 5.79267 2.94746 5.1144 3.44755 4.6143C3.94765 4.1142 4.62593 3.83325 5.33317 3.83325H11.9998C12.7071 3.83325 13.3854 4.1142 13.8855 4.6143C14.3856 5.1144 14.6665 5.79267 14.6665 6.49992V23.1666C14.6665 23.9545 14.5113 24.7347 14.2098 25.4627C13.9083 26.1906 13.4663 26.8521 12.9091 27.4092C12.352 27.9664 11.6906 28.4083 10.9626 28.7099C10.2347 29.0114 9.45444 29.1666 8.6665 29.1666C7.87857 29.1666 7.09836 29.0114 6.3704 28.7099C5.64245 28.4083 4.98101 27.9664 4.42386 27.4092C3.86671 26.8521 3.42476 26.1906 3.12323 25.4627C2.8217 24.7347 2.6665 23.9545 2.6665 23.1666V6.49992Z" stroke="#6366F1" stroke-width="3"/>
</g>
<path d="M8.6665 25.1667C9.77107 25.1667 10.6665 24.2713 10.6665 23.1667C10.6665 22.0622 9.77107 21.1667 8.6665 21.1667C7.56193 21.1667 6.6665 22.0622 6.6665 23.1667C6.6665 24.2713 7.56193 25.1667 8.6665 25.1667Z" fill="#6366F1" stroke="#6366F1" stroke-width="2" stroke-linecap="round"/>
<defs>
<filter id="filter0_b_614_1856" x="-14.8335" y="-13.6667" width="47" height="60.3333" filterUnits="userSpaceOnUse" color-interpolation-filters="sRGB">
<feFlood flood-opacity="0" result="BackgroundImageFix"/>
<feGaussianBlur in="BackgroundImageFix" stdDeviation="8"/>
<feComposite in2="SourceAlpha" operator="in" result="effect1_backgroundBlur_614_1856"/>
<feBlend mode="normal" in="SourceGraphic" in2="effect1_backgroundBlur_614_1856" result="shape"/>
</filter>
</defs>
</svg>
